<svg width="23" height="23" viewBox="0 0 23 23" fill="none" xmlns="http://www.w3.org/2000/svg">
<path d="M11.375 22.75C5.09336 22.75 0 17.6566 0 11.375C0 5.09336 5.09336 0 11.375 0C17.6566 0 22.75 5.09336 22.75 11.375C22.75 17.6566 17.6566 22.75 11.375 22.75ZM11.375 1.92969C6.15977 1.92969 1.92969 6.15977 1.92969 11.375C1.92969 16.5902 6.15977 20.8203 11.375 20.8203C16.5902 20.8203 20.8203 16.5902 20.8203 11.375C20.8203 6.15977 16.5902 1.92969 11.375 1.92969ZM11.5172 15.4553C12.8629 15.4553 13.777 14.5971 13.8785 13.3377C13.8861 13.2311 13.975 13.1498 14.0816 13.1498H15.5213C15.5873 13.1498 15.6406 13.2031 15.6406 13.2691C15.6406 15.4705 13.9039 17.0117 11.5096 17.0117C8.71914 17.0117 7.10938 15.1277 7.10938 12.0148V10.6869C7.10938 7.59688 8.71914 5.73828 11.5096 5.73828C13.8963 5.73828 15.6406 7.23125 15.6406 9.32852C15.6406 9.39453 15.5873 9.44785 15.5213 9.44785H14.0791C13.9725 9.44785 13.8861 9.3666 13.876 9.2625C13.7693 8.09199 12.8578 7.28711 11.5146 7.28711C9.85664 7.28711 8.92227 8.50332 8.92227 10.6793V12.0148C8.9248 14.2238 9.86172 15.4553 11.5172 15.4553Z" fill="white"/>
</svg>
